<svg width="548" height="529" xmlns="http://www.w3.org/2000/svg" xmlns:xlink="http://www.w3.org/1999/xlink" overflow="hidden"><defs><clipPath id="clip0"><rect x="38" y="70" width="548" height="529"/></clipPath></defs><g clip-path="url(#clip0)" transform="translate(-38 -70)"><text font-family="DengXian,DengXian_MSFontService,sans-serif" font-weight="400" font-size="24" transform="translate(54.5174 100)">训练生成器：<tspan font-size="24" x="0" y="47">Identity loss(</tspan>重建loss)<tspan font-size="24" x="1.27937" y="94">real_A</tspan></text><rect x="166.5" y="167.5" width="62" height="39" stroke="#000000" stroke-linejoin="round" stroke-miterlimit="10" fill="none"/><text font-family="DengXian,DengXian_MSFontService,sans-serif" font-weight="400" font-size="24" transform="translate(176.366 194)">B2A<tspan font-size="24" x="118.738" y="1">real_A</tspan></text><path d="M6.66667-0.666667 19.8307-0.666667 19.8307 239.974 7.9958 239.974 7.9958 238.641 19.164 238.641 18.4973 239.308 18.4973 0 19.164 0.666667 6.66667 0.666667ZM8 4 0 0 8-4ZM9.32913 243.308 1.32913 239.308 9.32913 235.308Z" transform="matrix(1.83697e-16 1 1 -1.83697e-16 88.5001 206.5)"/><path d="M129.508 185.833 159.413 186.209 159.396 187.543 129.492 187.167ZM158.122 182.86 166.071 186.96 158.021 190.859Z"/><path d="M228.51 186.833 279.221 187.602 279.201 188.935 228.49 188.167ZM277.938 184.249 285.877 188.369 277.817 192.248Z"/><text font-family="DengXian,DengXian_MSFontService,sans-serif" font-weight="400" font-size="24" transform="translate(53.3566 272)">GAN loss<tspan font-size="24" x="2.68934" y="51">real_A</tspan></text><rect x="178.5" y="295.5" width="67" height="39" stroke="#000000" stroke-linejoin="round" stroke-miterlimit="10" fill="none"/><text font-family="DengXian,DengXian_MSFontService,sans-serif" font-weight="400" font-size="24" transform="translate(191.021 322)">A2B<tspan font-size="24" x="105.612" y="1">fake_B</tspan></text><path d="M0.005918-0.66664 41.6503-0.296949 41.6384 1.03633-0.005918 0.66664ZM40.3466-3.64199 48.3108 0.428871 40.2756 4.3577Z" transform="matrix(1 0 0 -1 130.5 315.929)"/><path d="M245.514 314.834 280.434 315.564 280.406 316.897 245.486 316.167ZM279.171 312.203 287.086 316.369 279.004 320.201Z"/><rect x="415.5" y="296.5" width="52" height="39" stroke="#000000" stroke-linejoin="round" stroke-miterlimit="10" fill="none"/><text font-family="DengXian,DengXian_MSFontService,sans-serif" font-weight="400" font-size="24" transform="translate(425.76 323)">DB<tspan font-size="24" x="97.5502" y="0">valid</tspan></text><path d="M373.5 315.833 408.419 315.833 408.419 317.167 373.5 317.167ZM407.086 312.5 415.086 316.5 407.086 320.5Z"/><path d="M474.169 315.857 507.843 315.979 507.838 317.312 474.164 317.191ZM475.486 320.529 467.5 316.5 475.514 312.529ZM506.522 312.641 514.507 316.67 506.493 320.641Z"/><text font-family="DengXian,DengXian_MSFontService,sans-serif" font-weight="400" font-size="24" transform="translate(55.7967 374)">Cycle<tspan font-size="24" x="61" y="0">loss</tspan><tspan font-size="24" x="-1.27937" y="52">fake_B</tspan></text><rect x="174.5" y="399.5" width="63" height="39" stroke="#000000" stroke-linejoin="round" stroke-miterlimit="10" fill="none"/><text font-family="DengXian,DengXian_MSFontService,sans-serif" font-weight="400" font-size="24" transform="translate(184.907 426)">B2A<tspan font-size="24" x="97.8668" y="0">recov_A</tspan><tspan font-size="24" x="244.765" y="0">real_A</tspan></text><path d="M131.5 418.833 168.363 418.833 168.363 420.167 131.5 420.167ZM167.03 415.5 175.03 419.5 167.03 423.5Z"/><path d="M0.010927-0.666577 29.8508-0.177422 29.8289 1.15573-0.010927 0.666577ZM28.5723-3.53216 36.5056 0.598425 28.4411 4.46676Z" transform="matrix(1 0 0 -1 237.5 419.098)"/><path d="M382.167 417.833 413.88 417.833 413.88 419.167 382.167 419.167ZM383.5 422.5 375.5 418.5 383.5 414.5ZM412.547 414.5 420.547 418.5 412.547 422.5Z"/><text font-family="DengXian,DengXian_MSFontService,sans-serif" font-weight="400" font-size="24" transform="translate(55.7967 477)">训练判别器<tspan font-size="24" x="120" y="0">：</tspan><tspan font-size="24" x="-1.27937" y="51">real_A</tspan></text><rect x="162.5" y="502.5" width="52" height="38" stroke="#000000" stroke-linejoin="round" stroke-miterlimit="10" fill="none"/><text font-family="DengXian,DengXian_MSFontService,sans-serif" font-weight="400" font-size="24" transform="translate(172.06 529)">DA<tspan font-size="24" x="100.069" y="-1">valid</tspan><tspan font-size="24" x="-118.703" y="47">fake</tspan><tspan font-size="24" x="-76.0368" y="47">_A</tspan></text><rect x="165.5" y="550.5" width="52" height="38" stroke="#000000" stroke-linejoin="round" stroke-miterlimit="10" fill="none"/><text font-family="DengXian,DengXian_MSFontService,sans-serif" font-weight="400" font-size="24" transform="translate(174.851 577)">DA<tspan font-size="24" x="97.2781" y="-1">fake</tspan></text><path d="M128.5 520.833 155.776 520.833 155.776 522.167 128.5 522.167ZM154.443 517.5 162.443 521.5 154.443 525.5Z"/><path d="M221.167 520.833 256.44 520.833 256.44 522.167 221.167 522.167ZM222.5 525.5 214.5 521.5 222.5 517.5ZM255.107 517.5 263.107 521.5 255.107 525.5Z"/><path d="M132.5 568.833 158.847 568.833 158.847 570.167 132.5 570.167ZM157.514 565.5 165.514 569.5 157.514 573.5Z"/><path d="M224.167 568.833 256.649 568.833 256.649 570.167 224.167 570.167ZM225.5 573.5 217.5 569.5 225.5 565.5ZM255.316 565.5 263.316 569.5 255.316 573.5Z"/></g></svg>